<?xml version="1.0" standalone="no"?>
<!DOCTYPE svg PUBLIC "-//W3C//DTD SVG 20010904//EN"
 "http://www.w3.org/TR/2001/REC-SVG-20010904/DTD/svg10.dtd">
<svg version="1.0" xmlns="http://www.w3.org/2000/svg"
 width="512.000000pt" height="512.000000pt" viewBox="0 0 512.000000 512.000000"
 preserveAspectRatio="xMidYMid meet">

<g transform="translate(0.000000,512.000000) scale(0.100000,-0.100000)"
fill="#000000" stroke="none">
<path d="M580 4899 c-191 -25 -336 -177 -360 -379 -7 -56 -10 -744 -8 -2020 3
-1825 4 -1938 21 -1987 28 -84 94 -171 165 -220 125 -85 -74 -78 2162 -78
2236 0 2037 -7 2162 78 71 49 137 136 165 220 17 49 18 162 21 1987 2 1276 -1
1964 -8 2020 -24 206 -169 354 -370 380 -93 12 -3857 11 -3950 -1z m1062
-1922 c15 -7 225 -232 468 -502 242 -269 445 -490 450 -490 5 0 208 221 450
490 482 537 478 533 553 502 45 -19 72 -71 62 -119 -5 -21 -158 -198 -501
-579 -271 -301 -502 -553 -513 -558 -25 -14 -77 -14 -102 0 -11 5 -242 257
-513 558 -343 381 -496 558 -501 579 -9 45 17 100 57 117 40 17 55 18 90 2z"/>
</g>
</svg>
