<?xml version="1.0" standalone="no"?>
<!DOCTYPE svg PUBLIC "-//W3C//DTD SVG 20010904//EN"
 "http://www.w3.org/TR/2001/REC-SVG-20010904/DTD/svg10.dtd">
<svg version="1.0" xmlns="http://www.w3.org/2000/svg"
 width="512.000000pt" height="512.000000pt" viewBox="0 0 512.000000 512.000000"
 preserveAspectRatio="xMidYMid meet">

<g transform="translate(0.000000,512.000000) scale(0.100000,-0.100000)"
fill="#000000" stroke="none">
<path d="M575 4899 c-184 -27 -330 -180 -355 -369 -13 -101 -13 -3839 0 -3940
26 -201 174 -346 380 -370 56 -7 744 -10 2020 -8 1825 3 1938 4 1987 21 84 28
171 94 220 165 85 125 78 -74 78 2162 0 2236 7 2037 -78 2162 -49 71 -136 137
-220 165 -49 17 -159 18 -2012 19 -1083 1 -1987 -2 -2020 -7z m2036 -1500 c11
-5 242 -257 513 -558 343 -381 496 -558 501 -579 10 -48 -17 -100 -62 -119
-75 -31 -71 -35 -553 502 -242 270 -445 490 -450 490 -5 0 -208 -220 -450
-490 -482 -537 -478 -533 -553 -502 -45 19 -72 71 -62 119 5 21 158 198 500
578 272 302 502 553 512 559 23 14 79 14 104 0z"/>
</g>
</svg>
