<svg id="logo" xmlns="http://www.w3.org/2000/svg" xmlns:xlink="http://www.w3.org/1999/xlink" width="249.37" height="58.111" viewBox="0 0 249.37 58.111">
  <defs>
    <clipPath id="clip-path">
      <rect id="Rectangle_2007" data-name="Rectangle 2007" width="249.37" height="58.111" fill="none"/>
    </clipPath>
  </defs>
  <g id="Group_3847" data-name="Group 3847" clip-path="url(#clip-path)">
    <path id="Path_3614" data-name="Path 3614" d="M912.309,240.572H826.975c-.246,0-.493-.014-.739-.022q2.774-3.687,5.547-7.375,2.151-2.862,4.3-5.727c.246-.011.491-.032.737-.032h75.491Zm-9.472-11.82h-.814c-1.456,0-2.911-.01-4.367,0-1.557.013-2.127.594-2.152,2.158,0,.222.007.444,0,.665a1.356,1.356,0,0,0,.738,1.27,7.237,7.237,0,0,0,1.833.772q3.589,1.028,7.179,2.052c.26.075.527.135.778.234a.572.572,0,0,1,.379.648.512.512,0,0,1-.558.475c-.173.006-.346,0-.518,0h-8.586c-1.254,0-1.254,0-1.246,1.218.005.744-.058.689.666.689h10.288a3.861,3.861,0,0,0,.88-.085,1.538,1.538,0,0,0,1.341-1.464c.1-1.878.31-2.248-1.769-3.1a6.156,6.156,0,0,0-.631-.211q-1.881-.544-3.765-1.081c-1.374-.393-2.751-.777-4.122-1.18-.586-.172-.784-.695-.42-1.041.207-.2.465-.128.7-.129q4.367-.006,8.734,0c1.338,0,1.309,0,1.328-1.308.007-.525-.2-.594-.643-.589-1.751.021-3.5.009-5.255.009m-47.349,0h-4.664c-1.23,0-1.23,0-1.219,1.247.006.684.006.687.676.687q4.479,0,8.959,0c1.368,0,1.394.041,1.272,1.412-.031.343-.174.491-.5.5q-.3,0-.592,0h-9.107c-.7,0-.707,0-.708.721,0,1.355-.014,2.71.006,4.064.008.532-.245,1.218.123,1.557s1.04.05,1.575.111c.484.056.573-.161.562-.593-.028-1.083-.012-2.167-.01-3.251,0-.672,0-.676.685-.677,2.443,0,4.887,0,7.33,0a9.129,9.129,0,0,0,1.329-.067,1.661,1.661,0,0,0,1.585-1.734,20.755,20.755,0,0,0,0-2.216,1.677,1.677,0,0,0-1.6-1.724,4.868,4.868,0,0,0-.738-.033q-2.48,0-4.961,0m31.219,10.186c1.48,0,2.96.009,4.44,0,1.538-.012,2.162-.637,2.167-2.156.005-1.625,0-3.249,0-4.874,0-.911-.011-1.822.006-2.732.006-.32-.1-.443-.423-.426-.369.02-.74,0-1.11,0-.853,0-.765-.079-.766.737,0,2.24,0,4.48,0,6.72,0,.794-.017.818-.761.82q-3.551.009-7.1,0c-.731,0-.778-.06-.779-.823,0-1.92,0-3.84,0-5.76,0-.537.229-1.238-.091-1.567-.355-.366-1.075-.064-1.629-.133-.481-.06-.57.151-.564.584.022,1.7.006,3.4.01,5.1,0,.96.007,1.92.034,2.879a1.5,1.5,0,0,0,1.047,1.463,3.223,3.223,0,0,0,1.163.173c1.455-.006,2.91,0,4.365,0m-14.36,0h4.659c1.211,0,1.213,0,1.205-1.181-.005-.806.1-.725-.774-.725q-4.622,0-9.244,0c-.9,0-.927-.027-.927-.9,0-1.894.006-3.789,0-5.683,0-.537.231-1.251-.088-1.566-.386-.382-1.12-.079-1.7-.131-.024,0-.049,0-.074,0-.279-.03-.394.083-.393.374.011,2.755,0,5.511.027,8.266a1.449,1.449,0,0,0,1.116,1.4,3.443,3.443,0,0,0,1.094.144c1.7,0,3.4,0,5.1,0" transform="translate(-662.939 -182.468)" fill="#393e40"/>
    <path id="Path_3615" data-name="Path 3615" d="M146.382,58.076c-.271.009-.542.027-.813.027q-65.43,0-130.86,0a27.617,27.617,0,0,1-9.153-1.335,9.815,9.815,0,0,1-3.091-1.679A6.958,6.958,0,0,1,.008,49.119a22.7,22.7,0,0,1,1.909-7.733Q7.053,28.738,12.225,16.1a29.074,29.074,0,0,1,5-8.292A21.98,21.98,0,0,1,28.5,1.2,37.475,37.475,0,0,1,38.065,0Q61.356-.007,84.647,0c.831,0,.83,0,.529.748-1.574,3.9-3.159,7.8-4.711,11.71a1,1,0,0,1-1.123.723q-18.811-.029-37.621-.007a21.517,21.517,0,0,0-6.053.787,12.323,12.323,0,0,0-7.127,5.95,19.482,19.482,0,0,0-.987,1.968c-.179.391-.047.479.322.448.172-.015.345,0,.518,0H76.542c-.565,1.365-1.106,2.669-1.643,3.974-1.173,2.851-2.362,5.7-3.5,8.561a.9.9,0,0,1-1.026.645q-12.4-.025-24.809-.012-11.442,0-22.884-.013a.863.863,0,0,0-1,.686,12.257,12.257,0,0,0-.753,4.615,3.563,3.563,0,0,0,2.25,3.263,9.933,9.933,0,0,0,3.064.74c1.226.118,2.459.17,3.695.169q20.514-.014,41.028.01a.968.968,0,0,0,1.072-.7Q81.066,22.537,90.123.822C90.465,0,90.465,0,91.379,0Q94.6,0,97.822,0c.653,0,.656.006.4.615Q92.817,13.593,87.408,26.568q-3.672,8.808-7.347,17.615a4.764,4.764,0,0,1-.188.478c-.135.246-.028.293.2.285.2-.007.395,0,.593,0q37.584,0,75.169,0c.295,0,.59.023.885.035q-3.6,4.542-7.2,9.086c-1.05,1.332-2.161,2.617-3.136,4.008" transform="translate(0 0)" fill="#f74137"/>
    <path id="Path_3616" data-name="Path 3616" d="M869.473,98.711q6.368,0,12.736,0a8.574,8.574,0,0,1,2.484.325,3.755,3.755,0,0,1,2.888,3.674c.055,1.846.037,3.7,0,5.542a2.338,2.338,0,0,1-1.006,2.107c-.158.1-.238.2-.07.324,1.1.84,1.054,2.1,1.217,3.282q.59,4.277,1.169,8.555c.083.609.087.616-.535.618-1.432,0-2.863-.015-4.294.011-.453.008-.571-.154-.627-.583-.4-3.1-.83-6.193-1.263-9.286-.116-.826-.278-.957-1.1-.958-6.368,0-12.736,0-19.1-.013-.495,0-.608.144-.605.617.02,3.178.011,6.356.01,9.534,0,.675,0,.679-.671.679-1.53,0-3.06-.009-4.591,0-.457,0-.679-.08-.678-.641q.033-11.6,0-23.205c0-.513.174-.592.628-.591,4.467.015,8.935.009,13.4.009m2.056,9.018h4.958c1.5,0,3.009,0,4.514,0,.975,0,1.15-.186,1.156-1.177q.006-1.034,0-2.068c-.006-1.023-.169-1.182-1.221-1.183q-5.476,0-10.951,0c-2.664,0-5.328.01-7.991-.01-.463,0-.645.091-.625.6.041,1.057.011,2.116.013,3.175,0,.663,0,.667.677.667h9.471" transform="translate(-686.371 -79.195)" fill="#393e40"/>
    <path id="Path_3617" data-name="Path 3617" d="M483.165,110.849q0-5.728,0-11.455c0-.812-.088-.751.757-.752q2,0,4,0c.8,0,.692-.071.693.726,0,2.537,0,5.075,0,7.612,0,.766-.069.689.655.689q9.737,0,19.474.012c.505,0,.665-.117.66-.643-.028-2.562-.013-5.124-.012-7.686,0-.708,0-.71.726-.711,1.358,0,2.716.023,4.072-.013.508-.013.666.112.66.64-.027,2.66-.013,5.321-.013,7.981q0,7.538,0,15.076c0,.83.1.747-.749.75-1.308,0-2.616,0-3.925,0-.769,0-.771,0-.771-.747q0-4.656,0-9.312c0-.875.059-.758-.744-.759q-9.663,0-19.326,0c-.812,0-.7-.065-.7.716q-.006,4.693,0,9.386c0,.787.087.714-.708.716q-2,.005-4,0c-.741,0-.743,0-.743-.773q0-5.728,0-11.455" transform="translate(-387.671 -79.135)" fill="#393e40"/>
    <path id="Path_3618" data-name="Path 3618" d="M686.391,122.923q-5.182,0-10.364,0a10.626,10.626,0,0,1-1.694-.128,4.067,4.067,0,0,1-3.8-4.312c-.014-.492,0-.985,0-1.478q0-8.866,0-17.733c0-.785,0-.786.806-.787,1.333,0,2.666.023,4-.012.51-.014.662.124.659.645-.024,3.251-.012,6.5-.012,9.753q0,4.027,0,8.053c0,1.275.133,1.413,1.38,1.413h18.063c1.189,0,1.333-.14,1.333-1.3q0-8.792,0-17.585c0-.172.01-.345,0-.517-.021-.3.078-.453.411-.45q2.332.015,4.664,0c.294,0,.4.116.375.393-.012.147,0,.3,0,.443q0,9.346,0,18.693a8.675,8.675,0,0,1-.052,1.253,3.818,3.818,0,0,1-3.054,3.383,8.379,8.379,0,0,1-2.119.275q-5.293,0-10.586,0" transform="translate(-538.004 -79.012)" fill="#393e40"/>
    <path id="Path_3619" data-name="Path 3619" d="M1052.709,98.7q7.551,0,15.1,0c.842,0,.736-.08.74.757q.008,1.552,0,3.1c0,.8.111.726-.772.726q-5.774,0-11.548,0c-.925,0-.819-.1-.82.835q0,9.125,0,18.25c0,.768,0,.771-.74.772q-1.962,0-3.924,0c-.739,0-.742,0-.742-.773q0-9.051,0-18.1c0-.983,0-.983-.971-.983h-11.474c-.768,0-.69.057-.692-.656,0-1.108.022-2.217-.011-3.325-.014-.473.108-.624.6-.619,2.591.025,5.182.012,7.773.012Z" transform="translate(-831.93 -79.183)" fill="#393e40"/>
    <path id="Path_3620" data-name="Path 3620" d="M740.651,240.514c.975-1.391,2.086-2.676,3.136-4.008q3.588-4.551,7.2-9.086a13.6,13.6,0,0,1,2.025-.011c-.093.145-.176.3-.279.433q-2.808,3.708-5.619,7.414c-1.318,1.747-2.624,3.5-3.935,5.256a21.76,21.76,0,0,1-2.524,0" transform="translate(-594.269 -182.438)" fill="#393e40"/>
    <path id="Path_3621" data-name="Path 3621" d="M827.563,227.421q-2.149,2.864-4.3,5.727-2.772,3.689-5.548,7.375a16.964,16.964,0,0,1-2.1-.009q2.683-3.568,5.366-7.136,2.237-2.981,4.468-5.966a15.653,15.653,0,0,1,2.109.008" transform="translate(-654.421 -182.442)" fill="#f74137"/>
    <path id="Path_3622" data-name="Path 3622" d="M753.42,240.515c1.311-1.752,2.616-3.509,3.935-5.256q2.8-3.712,5.619-7.414c.1-.137.187-.288.279-.433a15.324,15.324,0,0,1,2.113.01c-1.925,2.556-3.86,5.1-5.773,7.669-1.354,1.814-2.783,3.573-4.076,5.432a17.107,17.107,0,0,1-2.1-.009" transform="translate(-604.514 -182.442)" fill="#f74137"/>
    <path id="Path_3623" data-name="Path 3623" d="M796.733,240.524a17,17,0,0,1-2.1-.009,2.019,2.019,0,0,1,.142-.256q3.1-4.089,6.207-8.177c1.172-1.549,2.325-3.113,3.487-4.67a15.387,15.387,0,0,1,2.113.011q-2.666,3.539-5.332,7.078-2.263,3.009-4.52,6.023" transform="translate(-637.584 -182.442)" fill="#f74137"/>
    <path id="Path_3624" data-name="Path 3624" d="M783.487,227.412a15.448,15.448,0,0,1,2.111.011q-2.665,3.539-5.33,7.078-2.263,3.009-4.52,6.023a17.07,17.07,0,0,1-2.1-.009,1.989,1.989,0,0,1,.142-.256q3.079-4.061,6.16-8.12c1.186-1.569,2.356-3.151,3.534-4.727" transform="translate(-620.747 -182.441)" fill="#f74137"/>
    <path id="Path_3625" data-name="Path 3625" d="M784.264,240.522q2.26-3.011,4.52-6.023,2.663-3.541,5.33-7.078a14.181,14.181,0,0,1,2.036-.011c-1.162,1.557-2.316,3.12-3.487,4.67q-3.1,4.094-6.207,8.177a1.969,1.969,0,0,0-.142.256,15.8,15.8,0,0,1-2.05.009" transform="translate(-629.263 -182.44)" fill="#393e40"/>
    <path id="Path_3626" data-name="Path 3626" d="M805.25,240.521q2.26-3.011,4.52-6.023,2.663-3.541,5.332-7.078a13.838,13.838,0,0,1,2.032-.011q-2.234,2.983-4.468,5.966-2.68,3.57-5.365,7.136a15.792,15.792,0,0,1-2.05.009" transform="translate(-646.101 -182.439)" fill="#393e40"/>
    <path id="Path_3627" data-name="Path 3627" d="M775.768,227.409c-1.178,1.576-2.348,3.157-3.534,4.727q-3.073,4.065-6.16,8.12a1.981,1.981,0,0,0-.142.256,13.659,13.659,0,0,1-1.9.009c1.293-1.859,2.722-3.618,4.076-5.432,1.914-2.564,3.848-5.114,5.773-7.669a12.122,12.122,0,0,1,1.888-.011" transform="translate(-613.028 -182.438)" fill="#393e40"/>
  </g>
</svg>
